<?xml version="1.0" standalone="no"?><!DOCTYPE svg PUBLIC "-//W3C//DTD SVG 1.1//EN" "http://www.w3.org/Graphics/SVG/1.1/DTD/svg11.dtd"><svg class="icon" width="200px" height="200.00px" viewBox="0 0 1024 1024" version="1.1" xmlns="http://www.w3.org/2000/svg"><path  d="M512 806.764618C349.188606 806.764618 217.235382 674.811394 217.235382 512s131.953223-294.764618 294.764618-294.764618 294.764618 131.953223 294.764618 294.764618-131.953223 294.764618-294.764618 294.764618z m0-39.301949c141.087856 0 255.462669-114.374813 255.462669-255.462669S653.087856 256.537331 512 256.537331 256.537331 370.912144 256.537331 512s114.374813 255.462669 255.462669 255.462669zM549.152624 512l99.329535 99.252774-37.152624 37.152623L512 549.152624 412.747226 648.405397l-37.152623-37.152623L474.847376 512 374.443178 411.595802l37.152624-37.152624L512 474.847376l100.404198-100.404198 37.152624 37.152624L549.152624 512z m0 0" /></svg>